<mxfile host="www.draw.io" modified="2020-04-16T01:10:21.770Z" agent="5.0 (Macintosh; Intel Mac OS X 10_14_4) AppleWebKit/537.36 (KHTML, like Gecko) Chrome/80.0.3987.163 Safari/537.36" etag="OpZZV0cZbs3IR-NwPMeK" version="12.9.11" type="github">
  <diagram id="Zh2QiRvOW6fRDHmnIyD_" name="Page-1">
    <mxGraphModel dx="946" dy="519" grid="1" gridSize="16" guides="1" tooltips="1" connect="1" arrows="1" fold="1" page="1" pageScale="1" pageWidth="827" pageHeight="1169" math="0" shadow="0">
      <root>
        <mxCell id="0" />
        <mxCell id="1" parent="0" />
        <mxCell id="nmIlPbCPk5iq8FXHahy4-21" value="" style="rounded=0;whiteSpace=wrap;html=1;fontSize=12;dashed=1;" parent="1" vertex="1">
          <mxGeometry x="64" y="128" width="336" height="496" as="geometry" />
        </mxCell>
        <mxCell id="nmIlPbCPk5iq8FXHahy4-20" value="" style="rounded=0;whiteSpace=wrap;html=1;fontSize=12;dashed=1;" parent="1" vertex="1">
          <mxGeometry x="64" y="20" width="336" height="92" as="geometry" />
        </mxCell>
        <mxCell id="nmIlPbCPk5iq8FXHahy4-1" value="本地磁盘存储" style="rounded=1;whiteSpace=wrap;html=1;fillColor=#d5e8d4;strokeColor=#82b366;" parent="1" vertex="1">
          <mxGeometry x="80" y="565" width="110" height="40" as="geometry" />
        </mxCell>
        <mxCell id="nmIlPbCPk5iq8FXHahy4-2" value="网络存储" style="rounded=1;whiteSpace=wrap;html=1;fillColor=#d5e8d4;strokeColor=#82b366;" parent="1" vertex="1">
          <mxGeometry x="268" y="565" width="110" height="40" as="geometry" />
        </mxCell>
        <mxCell id="nmIlPbCPk5iq8FXHahy4-3" value="块设备" style="rounded=1;whiteSpace=wrap;html=1;fillColor=#fff2cc;strokeColor=#d6b656;" parent="1" vertex="1">
          <mxGeometry x="80" y="412" width="310" height="30" as="geometry" />
        </mxCell>
        <mxCell id="nmIlPbCPk5iq8FXHahy4-4" value="" style="rounded=1;whiteSpace=wrap;html=1;fillColor=#e1d5e7;strokeColor=#9673a6;" parent="1" vertex="1">
          <mxGeometry x="80" y="301" width="310" height="100" as="geometry" />
        </mxCell>
        <mxCell id="nmIlPbCPk5iq8FXHahy4-5" value="Ext4" style="rounded=1;whiteSpace=wrap;html=1;" parent="1" vertex="1">
          <mxGeometry x="90" y="361" width="50" height="30" as="geometry" />
        </mxCell>
        <mxCell id="nmIlPbCPk5iq8FXHahy4-6" value="XFS" style="rounded=1;whiteSpace=wrap;html=1;" parent="1" vertex="1">
          <mxGeometry x="150" y="361" width="50" height="30" as="geometry" />
        </mxCell>
        <mxCell id="nmIlPbCPk5iq8FXHahy4-7" value="ZFS" style="rounded=1;whiteSpace=wrap;html=1;" parent="1" vertex="1">
          <mxGeometry x="210" y="361" width="50" height="30" as="geometry" />
        </mxCell>
        <mxCell id="nmIlPbCPk5iq8FXHahy4-8" value=".........." style="text;html=1;strokeColor=none;fillColor=none;align=center;verticalAlign=middle;whiteSpace=wrap;rounded=0;" parent="1" vertex="1">
          <mxGeometry x="268" y="371" width="40" height="20" as="geometry" />
        </mxCell>
        <mxCell id="nmIlPbCPk5iq8FXHahy4-9" value="NFS" style="rounded=1;whiteSpace=wrap;html=1;" parent="1" vertex="1">
          <mxGeometry x="314" y="361" width="40" height="30" as="geometry" />
        </mxCell>
        <mxCell id="nmIlPbCPk5iq8FXHahy4-11" value="文件系统" style="text;html=1;strokeColor=none;fillColor=none;align=center;verticalAlign=middle;whiteSpace=wrap;rounded=0;fontSize=16;" parent="1" vertex="1">
          <mxGeometry x="184" y="307" width="84" height="20" as="geometry" />
        </mxCell>
        <mxCell id="nmIlPbCPk5iq8FXHahy4-12" value="虚拟文件系统（VFS）" style="rounded=1;whiteSpace=wrap;html=1;fontSize=12;fillColor=#dae8fc;strokeColor=#6c8ebf;" parent="1" vertex="1">
          <mxGeometry x="158" y="207" width="120" height="80" as="geometry" />
        </mxCell>
        <mxCell id="nmIlPbCPk5iq8FXHahy4-13" value="目录项缓存" style="rounded=1;whiteSpace=wrap;html=1;fontSize=12;fillColor=#fff2cc;strokeColor=#d6b656;" parent="1" vertex="1">
          <mxGeometry x="288" y="206" width="96" height="32" as="geometry" />
        </mxCell>
        <mxCell id="nmIlPbCPk5iq8FXHahy4-14" value="索引节点缓存" style="rounded=1;whiteSpace=wrap;html=1;fontSize=12;fillColor=#fff2cc;strokeColor=#d6b656;" parent="1" vertex="1">
          <mxGeometry x="288" y="254" width="96" height="32" as="geometry" />
        </mxCell>
        <mxCell id="nmIlPbCPk5iq8FXHahy4-15" value="页缓存" style="rounded=1;whiteSpace=wrap;html=1;fontSize=12;fillColor=#fff2cc;strokeColor=#d6b656;" parent="1" vertex="1">
          <mxGeometry x="80" y="230" width="65.5" height="32" as="geometry" />
        </mxCell>
        <mxCell id="nmIlPbCPk5iq8FXHahy4-16" value="系统调用" style="rounded=1;whiteSpace=wrap;html=1;fontSize=12;fillColor=#f5f5f5;strokeColor=#666666;fontColor=#333333;" parent="1" vertex="1">
          <mxGeometry x="80" y="160" width="304" height="32" as="geometry" />
        </mxCell>
        <mxCell id="nmIlPbCPk5iq8FXHahy4-24" style="edgeStyle=orthogonalEdgeStyle;rounded=0;orthogonalLoop=1;jettySize=auto;html=1;entryX=0.25;entryY=0;entryDx=0;entryDy=0;fontSize=12;fontColor=#FF3333;" parent="1" source="nmIlPbCPk5iq8FXHahy4-17" target="nmIlPbCPk5iq8FXHahy4-16" edge="1">
          <mxGeometry relative="1" as="geometry">
            <Array as="points">
              <mxPoint x="156" y="96" />
              <mxPoint x="156" y="96" />
            </Array>
          </mxGeometry>
        </mxCell>
        <mxCell id="nmIlPbCPk5iq8FXHahy4-17" value="应用程序" style="rounded=1;whiteSpace=wrap;html=1;fontSize=12;fillColor=#d5e8d4;strokeColor=#82b366;" parent="1" vertex="1">
          <mxGeometry x="96" y="32" width="256" height="32" as="geometry" />
        </mxCell>
        <mxCell id="nmIlPbCPk5iq8FXHahy4-26" style="edgeStyle=orthogonalEdgeStyle;rounded=0;orthogonalLoop=1;jettySize=auto;html=1;entryX=0.75;entryY=0;entryDx=0;entryDy=0;fontSize=12;fontColor=#FF3333;" parent="1" source="nmIlPbCPk5iq8FXHahy4-19" target="nmIlPbCPk5iq8FXHahy4-16" edge="1">
          <mxGeometry relative="1" as="geometry">
            <Array as="points">
              <mxPoint x="308" y="128" />
              <mxPoint x="308" y="128" />
            </Array>
          </mxGeometry>
        </mxCell>
        <mxCell id="nmIlPbCPk5iq8FXHahy4-19" value="库函数" style="rounded=1;whiteSpace=wrap;html=1;fontSize=12;fillColor=#ffe6cc;strokeColor=#d79b00;" parent="1" vertex="1">
          <mxGeometry x="270" y="75" width="114" height="32" as="geometry" />
        </mxCell>
        <mxCell id="nmIlPbCPk5iq8FXHahy4-22" value="用户空间" style="text;html=1;strokeColor=none;fillColor=none;align=center;verticalAlign=middle;whiteSpace=wrap;rounded=0;fontSize=12;fontColor=#FF3333;" parent="1" vertex="1">
          <mxGeometry x="95" y="87" width="65" height="20" as="geometry" />
        </mxCell>
        <mxCell id="nmIlPbCPk5iq8FXHahy4-23" value="内核空间" style="text;html=1;strokeColor=none;fillColor=none;align=center;verticalAlign=middle;whiteSpace=wrap;rounded=0;fontSize=12;fontColor=#FF3333;" parent="1" vertex="1">
          <mxGeometry x="96" y="128" width="65" height="20" as="geometry" />
        </mxCell>
        <mxCell id="a-L2SMzfN0Pr7LXbtjmA-2" value="Buffer Cache" style="rounded=1;whiteSpace=wrap;html=1;fillColor=#fff2cc;strokeColor=#d6b656;" parent="1" vertex="1">
          <mxGeometry x="80" y="464" width="310" height="30" as="geometry" />
        </mxCell>
        <mxCell id="a-L2SMzfN0Pr7LXbtjmA-3" value="设备驱动程序" style="rounded=1;whiteSpace=wrap;html=1;fillColor=#fff2cc;strokeColor=#d6b656;" parent="1" vertex="1">
          <mxGeometry x="80" y="512" width="310" height="30" as="geometry" />
        </mxCell>
        <mxCell id="Xs-aRcT-grCkEEm_3WZL-1" value="应用程序" style="rounded=1;whiteSpace=wrap;html=1;fontSize=12;fillColor=#d5e8d4;strokeColor=#82b366;" vertex="1" parent="1">
          <mxGeometry x="480" y="43" width="256" height="32" as="geometry" />
        </mxCell>
        <mxCell id="Xs-aRcT-grCkEEm_3WZL-2" value="文件系统" style="rounded=1;whiteSpace=wrap;html=1;fillColor=#e1d5e7;strokeColor=#9673a6;" vertex="1" parent="1">
          <mxGeometry x="480" y="110" width="96" height="34" as="geometry" />
        </mxCell>
        <mxCell id="Xs-aRcT-grCkEEm_3WZL-3" value="页缓存" style="rounded=1;whiteSpace=wrap;html=1;fontSize=12;fillColor=#fff2cc;strokeColor=#d6b656;" vertex="1" parent="1">
          <mxGeometry x="480" y="174" width="192" height="32" as="geometry" />
        </mxCell>
        <mxCell id="Xs-aRcT-grCkEEm_3WZL-5" value="块设备" style="rounded=1;whiteSpace=wrap;html=1;fillColor=#fff2cc;strokeColor=#d6b656;" vertex="1" parent="1">
          <mxGeometry x="480" y="241" width="310" height="30" as="geometry" />
        </mxCell>
        <mxCell id="Xs-aRcT-grCkEEm_3WZL-6" value="Buffer Cache" style="rounded=1;whiteSpace=wrap;html=1;fillColor=#fff2cc;strokeColor=#d6b656;" vertex="1" parent="1">
          <mxGeometry x="480" y="293" width="310" height="30" as="geometry" />
        </mxCell>
        <mxCell id="Xs-aRcT-grCkEEm_3WZL-7" value="磁盘" style="rounded=1;whiteSpace=wrap;html=1;fillColor=#fff2cc;strokeColor=#d6b656;" vertex="1" parent="1">
          <mxGeometry x="480" y="341" width="310" height="30" as="geometry" />
        </mxCell>
      </root>
    </mxGraphModel>
  </diagram>
</mxfile>
